<?xml version="1.0" standalone="no"?>
<!DOCTYPE svg PUBLIC "-//W3C//DTD SVG 20010904//EN"
 "http://www.w3.org/TR/2001/REC-SVG-20010904/DTD/svg10.dtd">
<svg version="1.0" xmlns="http://www.w3.org/2000/svg"
 width="400.000000pt" height="400.000000pt" viewBox="0 0 400.000000 400.000000"
 preserveAspectRatio="xMidYMid meet">

<g transform="translate(0.000000,400.000000) scale(0.100000,-0.100000)"
fill="#000000" stroke="none">
<path d="M1684 3128 c-11 -40 -91 -194 -173 -336 -43 -75 -89 -159 -101 -187
-64 -140 -79 -176 -103 -250 -108 -329 -22 -661 222 -858 197 -160 435 -197
672 -106 162 63 317 193 358 303 88 237 56 487 -91 692 -18 25 -43 60 -55 78
-60 85 -423 436 -613 592 -19 16 -48 43 -64 61 -34 39 -42 41 -52 11z m305
-484 c58 -66 117 -134 130 -150 14 -16 48 -56 76 -89 138 -162 215 -292 244
-415 26 -107 26 -156 1 -227 -25 -71 -62 -111 -117 -125 -24 -6 -60 -24 -81
-41 -128 -103 -298 -113 -478 -27 -131 63 -234 178 -290 325 -24 62 -27 84
-28 200 -1 159 17 225 98 363 53 90 190 262 227 285 14 9 17 20 12 61 l-6 50
53 -45 c29 -24 100 -98 159 -165z"/>
<path d="M1656 2433 c-92 -138 -132 -294 -106 -418 35 -174 169 -328 335 -385
105 -36 263 -21 340 33 88 63 141 183 133 302 l-3 50 -29 -54 c-36 -69 -117
-150 -181 -181 -42 -20 -66 -24 -145 -25 -87 0 -99 2 -149 30 -115 64 -192
172 -217 305 -15 77 -15 91 1 174 9 50 29 122 45 160 16 38 28 72 26 74 -3 2
-25 -27 -50 -65z"/>
<path d="M1200 1174 c-10 -3 -33 -53 -59 -127 -60 -171 -59 -167 -24 -167 22
0 33 7 41 25 10 21 18 25 57 25 39 0 47 -3 55 -25 8 -20 16 -25 45 -25 l35 0
-34 93 c-81 222 -75 212 -116 201z m34 -141 c4 -16 9 -36 12 -45 4 -14 -1 -18
-21 -18 -32 0 -41 21 -25 60 15 37 26 38 34 3z"/>
<path d="M1397 1174 c-4 -4 -7 -72 -7 -151 l0 -143 59 0 c44 0 60 4 65 16 13
34 6 44 -29 44 l-34 0 -3 118 c-3 109 -4 117 -23 120 -12 2 -24 0 -28 -4z"/>
<path d="M1996 1170 c-82 -25 -119 -123 -81 -213 42 -101 211 -101 259 -1 56
118 -55 252 -178 214z m101 -72 c33 -31 33 -109 -2 -143 -33 -34 -70 -32 -106
6 -22 23 -29 41 -29 71 0 75 84 116 137 66z"/>
<path d="M1567 1078 c-9 -51 -19 -117 -23 -146 l-7 -53 34 3 34 3 10 74 10 74
23 -72 c23 -72 46 -97 63 -70 5 8 16 44 26 82 10 37 20 67 24 67 4 0 10 -26
14 -57 11 -100 13 -103 52 -103 39 0 38 -19 7 160 -20 117 -27 130 -63 130
-27 0 -30 -4 -52 -80 -12 -44 -26 -80 -29 -80 -3 0 -17 36 -29 80 -22 75 -25
80 -51 80 -26 0 -27 -3 -43 -92z"/>
<path d="M2260 1024 l0 -145 33 3 32 3 5 75 5 74 70 -77 c56 -63 74 -77 95
-75 l25 3 3 143 3 142 -36 0 -35 0 0 -87 -1 -88 -20 25 c-11 14 -39 47 -62 74
-23 27 -46 55 -50 62 -4 8 -21 14 -37 14 l-30 0 0 -146z"/>
<path d="M2600 1026 l0 -146 56 0 c69 0 139 32 166 75 10 18 18 49 18 76 0 40
-6 53 -39 90 l-38 44 -82 3 -81 4 0 -146z m159 49 c10 -21 11 -40 5 -74 -8
-41 -13 -47 -44 -57 -19 -7 -38 -10 -42 -7 -9 5 -11 167 -3 175 3 3 20 2 38
-1 22 -5 36 -16 46 -36z"/>
</g>
</svg>
